<?xml version="1.0" encoding="UTF-8"?>
<svg width="174px" height="31px" viewBox="0 0 174 31" version="1.1" xmlns="http://www.w3.org/2000/svg" xmlns:xlink="http://www.w3.org/1999/xlink">
    <!-- Generator: Sketch 56.3 (81716) - https://sketch.com -->
    <title>logo</title>
    <desc>Created with Sketch.</desc>
    <g id="Page-1" stroke="none" stroke-width="1" fill="none" fill-rule="evenodd">
        <g id="snitch-blog-header" transform="translate(-514.000000, -300.000000)">
            <g id="Group-3" transform="translate(417.000000, 191.000000)">
                <g id="logo-w-bkgrd">
                    <g id="logo-w-box" transform="translate(20.000000, 0.000000)">
                        <g id="Group-4">
                            <g id="logo" transform="translate(77.152838, 109.000000)">
                                <g id="shadow" transform="translate(0.000000, 2.214286)" fill="#8FE1D3">
                                    <polygon id="Fill-1" points="4.05464497 6.05645893 4.05464497 8.07533393 2.0272113 8.07533393 2.0272113 10.0942089 -0.000222367279 10.0942089 -0.000222367279 14.1314054 2.0272113 14.1314054 2.0272113 16.1502804 6.08207864 16.1502804 6.08207864 18.1691554 10.1363901 18.1691554 10.1363901 20.1880304 14.1912574 20.1880304 14.1912574 24.2252268 6.08207864 24.2252268 6.08207864 22.2063518 4.05464497 22.2063518 4.05464497 20.1880304 -0.000222367279 20.1880304 -0.000222367279 24.2252268 2.0272113 24.2252268 2.0272113 26.2441018 4.05464497 26.2441018 4.05464497 28.2629768 16.2186911 28.2629768 16.2186911 26.2441018 18.2461248 26.2441018 18.2461248 24.2252268 20.2730025 24.2252268 20.2730025 20.1880304 18.2461248 20.1880304 18.2461248 18.1691554 16.2186911 18.1691554 16.2186911 16.1502804 12.1638237 16.1502804 12.1638237 14.1314054 6.08207864 14.1314054 6.08207864 10.0942089 14.1912574 10.0942089 14.1912574 12.1125304 16.2186911 12.1125304 16.2186911 14.1314054 20.2730025 14.1314054 20.2730025 10.0942089 18.2461248 10.0942089 18.2461248 8.07533393 16.2186911 8.07533393 16.2186911 6.05645893"></polygon>
                                    <polygon id="Fill-2" points="38.7137542 6.05645893 38.7137542 8.07533393 36.6868765 8.07533393 36.6868765 6.05645893 32.6320091 6.05645893 32.6320091 28.2629768 36.6868765 28.2629768 36.6868765 12.1125304 38.7137542 12.1125304 38.7137542 10.0942089 46.822933 10.0942089 46.822933 12.1125304 48.8509226 12.1125304 48.8509226 28.2629768 52.905234 28.2629768 52.905234 10.0942089 50.8778003 10.0942089 50.8778003 8.07533393 48.8509226 8.07533393 48.8509226 6.05645893"></polygon>
                                    <path d="M71.0480136,6.05634821 L75.1028809,6.05634821 L75.1028809,2.01859821 L71.0480136,2.01859821 L71.0480136,6.05634821 Z M66.9931462,10.0940982 L66.9931462,14.1312946 L71.0480136,14.1312946 L71.0480136,24.2251161 L73.0748913,24.2251161 L73.0748913,26.2439911 L75.102325,26.2439911 L75.102325,28.2628661 L79.1571923,28.2628661 L79.1571923,24.2251161 L77.1297586,24.2251161 L77.1297586,22.2067946 L75.102325,22.2067946 L75.102325,10.0940982 L66.9931462,10.0940982 Z" id="Fill-3"></path>
                                    <polygon id="Fill-4" points="95.2526363 0.000166071429 95.2526363 6.0562375 91.197769 6.0562375 91.197769 10.0939875 95.2526363 10.0939875 95.2526363 24.2255589 97.2795141 24.2255589 97.2795141 26.2438804 99.3069478 26.2438804 99.3069478 28.2627554 103.361259 28.2627554 103.361259 24.2255589 101.334381 24.2255589 101.334381 22.2066839 99.3069478 22.2066839 99.3069478 10.0939875 103.361259 10.0939875 103.361259 6.0562375 99.3069478 6.0562375 99.3069478 0.000166071429"></polygon>
                                    <polygon id="Fill-5" points="122.665519 6.05645893 122.665519 8.07533393 120.638641 8.07533393 120.638641 10.0942089 118.611207 10.0942089 118.611207 24.2252268 120.638641 24.2252268 120.638641 26.2441018 122.665519 26.2441018 122.665519 28.2629768 134.829565 28.2629768 134.829565 26.2441018 136.857554 26.2441018 136.857554 24.2252268 138.884432 24.2252268 138.884432 20.1880304 134.829565 20.1880304 134.829565 22.2063518 132.802687 22.2063518 132.802687 24.2252268 124.693508 24.2252268 124.693508 22.2063518 122.665519 22.2063518 122.665519 12.1125304 124.693508 12.1125304 124.693508 10.0942089 132.802687 10.0942089 132.802687 12.1125304 134.829565 12.1125304 134.829565 14.1314054 138.884432 14.1314054 138.884432 10.0942089 136.857554 10.0942089 136.857554 8.07533393 134.829565 8.07533393 134.829565 6.05645893"></polygon>
                                    <polygon id="Fill-6" points="151.243161 0.000166071429 151.243161 28.2627554 155.298028 28.2627554 155.298028 16.1500589 157.324906 16.1500589 157.324906 14.1317375 159.35234 14.1317375 159.35234 12.1128625 161.379773 12.1128625 161.379773 10.0939875 163.407207 10.0939875 163.407207 12.1128625 165.434641 12.1128625 165.434641 14.1317375 167.461518 14.1317375 167.461518 28.2627554 171.516386 28.2627554 171.516386 12.1128625 169.488952 12.1128625 169.488952 10.0939875 167.461518 10.0939875 167.461518 8.0751125 165.434641 8.0751125 165.434641 6.0562375 159.35234 6.0562375 159.35234 8.0751125 157.324906 8.0751125 157.324906 10.0939875 155.298028 10.0939875 155.298028 0.000166071429"></polygon>
                                </g>
                                <g id="main" transform="translate(2.221277, 0.000000)" fill="#383838">
                                    <polygon id="Fill-1" points="4.05464497 6.05645893 4.05464497 8.07533393 2.0272113 8.07533393 2.0272113 10.0942089 -0.000222367279 10.0942089 -0.000222367279 14.1314054 2.0272113 14.1314054 2.0272113 16.1502804 6.08207864 16.1502804 6.08207864 18.1691554 10.1363901 18.1691554 10.1363901 20.1880304 14.1912574 20.1880304 14.1912574 24.2252268 6.08207864 24.2252268 6.08207864 22.2063518 4.05464497 22.2063518 4.05464497 20.1880304 -0.000222367279 20.1880304 -0.000222367279 24.2252268 2.0272113 24.2252268 2.0272113 26.2441018 4.05464497 26.2441018 4.05464497 28.2629768 16.2186911 28.2629768 16.2186911 26.2441018 18.2461248 26.2441018 18.2461248 24.2252268 20.2730025 24.2252268 20.2730025 20.1880304 18.2461248 20.1880304 18.2461248 18.1691554 16.2186911 18.1691554 16.2186911 16.1502804 12.1638237 16.1502804 12.1638237 14.1314054 6.08207864 14.1314054 6.08207864 10.0942089 14.1912574 10.0942089 14.1912574 12.1125304 16.2186911 12.1125304 16.2186911 14.1314054 20.2730025 14.1314054 20.2730025 10.0942089 18.2461248 10.0942089 18.2461248 8.07533393 16.2186911 8.07533393 16.2186911 6.05645893"></polygon>
                                    <polygon id="Fill-2" points="38.7137542 6.05645893 38.7137542 8.07533393 36.6868765 8.07533393 36.6868765 6.05645893 32.6320091 6.05645893 32.6320091 28.2629768 36.6868765 28.2629768 36.6868765 12.1125304 38.7137542 12.1125304 38.7137542 10.0942089 46.822933 10.0942089 46.822933 12.1125304 48.8509226 12.1125304 48.8509226 28.2629768 52.905234 28.2629768 52.905234 10.0942089 50.8778003 10.0942089 50.8778003 8.07533393 48.8509226 8.07533393 48.8509226 6.05645893"></polygon>
                                    <path d="M71.0480136,6.05634821 L75.1028809,6.05634821 L75.1028809,2.01859821 L71.0480136,2.01859821 L71.0480136,6.05634821 Z M66.9931462,10.0940982 L66.9931462,14.1312946 L71.0480136,14.1312946 L71.0480136,24.2251161 L73.0748913,24.2251161 L73.0748913,26.2439911 L75.102325,26.2439911 L75.102325,28.2628661 L79.1571923,28.2628661 L79.1571923,24.2251161 L77.1297586,24.2251161 L77.1297586,22.2067946 L75.102325,22.2067946 L75.102325,10.0940982 L66.9931462,10.0940982 Z" id="Fill-3"></path>
                                    <polygon id="Fill-4" points="95.2526363 0.000166071429 95.2526363 6.0562375 91.197769 6.0562375 91.197769 10.0939875 95.2526363 10.0939875 95.2526363 24.2255589 97.2795141 24.2255589 97.2795141 26.2438804 99.3069478 26.2438804 99.3069478 28.2627554 103.361259 28.2627554 103.361259 24.2255589 101.334381 24.2255589 101.334381 22.2066839 99.3069478 22.2066839 99.3069478 10.0939875 103.361259 10.0939875 103.361259 6.0562375 99.3069478 6.0562375 99.3069478 0.000166071429"></polygon>
                                    <polygon id="Fill-5" points="122.665519 6.05645893 122.665519 8.07533393 120.638641 8.07533393 120.638641 10.0942089 118.611207 10.0942089 118.611207 24.2252268 120.638641 24.2252268 120.638641 26.2441018 122.665519 26.2441018 122.665519 28.2629768 134.829565 28.2629768 134.829565 26.2441018 136.857554 26.2441018 136.857554 24.2252268 138.884432 24.2252268 138.884432 20.1880304 134.829565 20.1880304 134.829565 22.2063518 132.802687 22.2063518 132.802687 24.2252268 124.693508 24.2252268 124.693508 22.2063518 122.665519 22.2063518 122.665519 12.1125304 124.693508 12.1125304 124.693508 10.0942089 132.802687 10.0942089 132.802687 12.1125304 134.829565 12.1125304 134.829565 14.1314054 138.884432 14.1314054 138.884432 10.0942089 136.857554 10.0942089 136.857554 8.07533393 134.829565 8.07533393 134.829565 6.05645893"></polygon>
                                    <polygon id="Fill-6" points="151.243161 0.000166071429 151.243161 28.2627554 155.298028 28.2627554 155.298028 16.1500589 157.324906 16.1500589 157.324906 14.1317375 159.35234 14.1317375 159.35234 12.1128625 161.379773 12.1128625 161.379773 10.0939875 163.407207 10.0939875 163.407207 12.1128625 165.434641 12.1128625 165.434641 14.1317375 167.461518 14.1317375 167.461518 28.2627554 171.516386 28.2627554 171.516386 12.1128625 169.488952 12.1128625 169.488952 10.0939875 167.461518 10.0939875 167.461518 8.0751125 165.434641 8.0751125 165.434641 6.0562375 159.35234 6.0562375 159.35234 8.0751125 157.324906 8.0751125 157.324906 10.0939875 155.298028 10.0939875 155.298028 0.000166071429"></polygon>
                                </g>
                            </g>
                        </g>
                    </g>
                </g>
            </g>
        </g>
    </g>
</svg>